# xmcd
#
# Track frame offsets:
#	150
#	20445
#	52875
#	77174
#	98325
#	116694
#	145982
#	174878
#	198518
#
# Disc length: 3426 seconds
#
# Revision: 1
# Processed by: cddbd v1.5.2PL0 Copyright (c) Steve Scherf et al.
# Submitted via: audiograbber 1.83.01
#
DISCID=690d6009
DTITLE=Jimmy Bosch - A Million
DYEAR=2009
DGENRE=
TTITLE0=Bailalo Si Te Atreves
TTITLE1=Maracayero
TTITLE2=Foreclosure Dj Mix
TTITLE3=Mujeres Mandan
TTITLE4=Te Adoro Mami
TTITLE5=Cuantas Veces
TTITLE6=Quedate
TTITLE7=Alma Compartido
TTITLE8=Foreclosure Full Version
EXTD=
EXTT0=
EXTT1=
EXTT2=
EXTT3=
EXTT4=
EXTT5=
EXTT6=
EXTT7=
EXTT8=
PLAYORDER=
